<svg width="183" height="73" viewBox="0 0 183 73" fill="none" xmlns="http://www.w3.org/2000/svg">
<mask id="mask0_30_2" style="mask-type:luminance" maskUnits="userSpaceOnUse" x="0" y="0" width="182" height="50">
<path d="M181.136 0.820312H0.267517V49.8641H181.136V0.820312Z" fill="white"/>
</mask>
<g mask="url(#mask0_30_2)">
<path fill-rule="evenodd" clip-rule="evenodd" d="M0.267517 29.697H7.77086V49.8651H11.7726V29.697H19.3093V26.0983H0.267517V29.697ZM52.0449 34.2124C52.0449 29.052 48.5481 26.0983 42.4711 26.0983H32.8287V49.8651H36.8305V42.7009H42.4673C42.8408 42.7009 43.2143 42.7009 43.5535 42.6666L47.8992 49.8651H52.4489L47.1227 41.9215C50.2794 40.6972 52.0449 38.015 52.0449 34.2124ZM42.4711 39.1022H36.8343V29.697H42.4711C46.1375 29.697 48.2423 31.191 48.2423 34.3143C48.2423 37.5386 46.1375 39.1022 42.4711 39.1022ZM67.4604 49.8689H71.4621V26.0983H67.4604V49.8689ZM104.469 43.1802L91.7369 26.0983H87.798V49.8651H91.8045V32.8203L104.469 49.8651H108.407V26.0983H104.469V43.1802ZM144.84 26.1021H140.12L128.782 38.3933V26.1021H124.774V49.8651H128.78V43.8214L132.82 39.3737L140.633 49.8651H145.454L135.64 36.2495L144.84 26.1021ZM170.745 26.1021H166.64L156.147 49.8651H160.323L162.597 44.4998H174.582L176.857 49.8651H181.135L170.745 26.1021ZM164.091 40.9392L168.569 30.3802L173.047 40.9392H164.091Z" fill="#1D1D1D"/>
<path d="M9.95948 19.3067C15.0643 19.3067 19.2027 15.1683 19.2027 10.0635C19.2027 4.95862 15.0643 0.820312 9.95948 0.820312C4.85462 0.820312 0.716309 4.95862 0.716309 10.0635C0.716309 15.1683 4.85462 19.3067 9.95948 19.3067Z" fill="#763393"/>
<path d="M39.7628 19.3065C44.8677 19.3065 49.006 15.1682 49.006 10.0634C49.006 4.9585 44.8677 0.82019 39.7628 0.82019C34.658 0.82019 30.5197 4.9585 30.5197 10.0634C30.5197 15.1682 34.658 19.3065 39.7628 19.3065Z" fill="#FF5C5C"/>
<path d="M69.3773 19.3062C74.4822 19.3062 78.6205 15.1679 78.6205 10.063C78.6205 4.95813 74.4822 0.819824 69.3773 0.819824C64.2725 0.819824 60.1342 4.95813 60.1342 10.063C60.1342 15.1679 64.2725 19.3062 69.3773 19.3062Z" fill="#FDB933"/>
</g>
<path d="M9.13435 62.6648C9.36704 62.2576 9.70776 61.9252 10.1565 61.6676C10.6053 61.41 11.1164 61.2812 11.6898 61.2812C12.3047 61.2812 12.8574 61.4266 13.3477 61.7175C13.838 62.0083 14.2244 62.4197 14.507 62.9515C14.7895 63.4751 14.9308 64.0859 14.9308 64.784C14.9308 65.4737 14.7895 66.0887 14.507 66.6288C14.2244 67.169 13.8338 67.5887 13.3352 67.8878C12.8449 68.187 12.2964 68.3366 11.6898 68.3366C11.0997 68.3366 10.5803 68.2078 10.1316 67.9502C9.69114 67.6926 9.35873 67.3643 9.13435 66.9654V68.2244H8V59H9.13435V62.6648ZM13.7715 64.784C13.7715 64.2687 13.6676 63.82 13.4599 63.4377C13.2521 63.0554 12.9695 62.7646 12.6122 62.5651C12.2632 62.3657 11.8767 62.2659 11.4529 62.2659C11.0374 62.2659 10.651 62.3698 10.2936 62.5776C9.94461 62.777 9.66206 63.072 9.44599 63.4626C9.23823 63.8449 9.13435 64.2895 9.13435 64.7964C9.13435 65.3117 9.23823 65.7646 9.44599 66.1552C9.66206 66.5374 9.94461 66.8324 10.2936 67.0402C10.651 67.2396 11.0374 67.3394 11.4529 67.3394C11.8767 67.3394 12.2632 67.2396 12.6122 67.0402C12.9695 66.8324 13.2521 66.5374 13.4599 66.1552C13.6676 65.7646 13.7715 65.3075 13.7715 64.784Z" fill="black"/>
<path d="M22.3076 61.3934L18.194 71.4405H17.0222L18.3685 68.1496L15.6136 61.3934H16.8727L19.0167 66.928L21.1358 61.3934H22.3076Z" fill="black"/>
<path d="M46.7886 65.6927L47.3545 66.1544C46.9262 66.6672 46.5067 67.0756 46.1028 67.3797C45.6988 67.6772 45.3126 67.888 44.9553 68.0123C44.5935 68.1322 44.1741 68.1966 43.688 68.1966C42.818 68.1966 42.0856 68.0234 41.4775 67.6683C40.7806 67.2598 40.2479 66.7315 39.875 66.07C39.4977 65.4152 39.3157 64.6449 39.3157 63.7548C39.3157 62.8647 39.4999 62.0256 39.8551 61.3663C40.2168 60.7071 40.714 60.1832 41.362 59.8014C42.0057 59.424 42.7559 59.2354 43.6081 59.2354C44.2407 59.2354 44.7866 59.3286 45.2527 59.5328C45.7188 59.7259 46.1116 60.03 46.4357 60.4274C46.7597 60.8247 46.995 61.282 47.1481 61.7948C47.2325 62.0989 47.2791 62.4851 47.2902 62.9624H41.0336C41.018 63.2509 41.0069 63.464 41.0069 63.6061C41.0069 64.3497 41.1379 65.009 41.3953 65.5972C41.6572 66.1788 41.9968 66.6072 42.4274 66.8803C42.8513 67.1533 43.3396 67.2931 43.8833 67.2931C44.345 67.2931 44.7844 67.1821 45.2194 66.969C45.6478 66.7493 46.1716 66.3298 46.7841 65.706L46.7886 65.6905V65.6927ZM45.6567 62.1211C45.5679 61.5772 45.4414 61.1732 45.2794 60.9157C45.1173 60.6538 44.8865 60.4496 44.5935 60.2986C44.2961 60.1477 43.961 60.0678 43.5881 60.0678C43.2153 60.0678 42.8713 60.141 42.5406 60.2986C42.2165 60.4496 41.948 60.6649 41.7283 60.9379C41.513 61.211 41.3243 61.6039 41.169 62.1277H45.6567V62.1233V62.1211Z" fill="#231F20"/>
<path d="M48.6586 60.7138V59.9702C49.1824 59.908 49.5752 59.8392 49.8304 59.7549C50.0923 59.6705 50.463 59.4929 50.9557 59.2266H51.5949V60.9069C52.3761 60.2521 53.0397 59.8081 53.5902 59.5773C54.145 59.3464 54.6999 59.231 55.2658 59.231C55.7475 59.231 56.178 59.3087 56.5487 59.473C56.9215 59.635 57.2234 59.8548 57.4542 60.1322C57.685 60.4097 57.8426 60.7294 57.9203 61.0801C57.9669 61.2998 57.9935 61.6239 57.9935 62.0701V65.9614C57.9935 66.4275 58.0246 66.725 58.0934 66.8559C58.1622 66.9869 58.2665 67.0868 58.4174 67.1445C58.5639 67.2022 58.9257 67.2333 59.5072 67.2333V67.9769H54.9507V67.2333H55.197C55.6209 67.2333 55.9095 67.1956 56.067 67.1179C56.218 67.0402 56.3289 66.9292 56.3977 66.7782C56.4665 66.6317 56.4976 66.3321 56.4976 65.877V62.6206C56.4976 61.9458 56.4444 61.4841 56.3356 61.2221C56.2246 60.9602 56.0426 60.7515 55.7807 60.5895C55.5189 60.4275 55.1837 60.3475 54.7864 60.3475C54.3093 60.3475 53.7966 60.4674 53.2572 60.7138C52.7179 60.9602 52.1897 61.322 51.6859 61.7971V65.877C51.6859 66.3387 51.717 66.6406 51.7858 66.7938C51.8546 66.9447 51.97 67.0601 52.1165 67.1401C52.2208 67.1978 52.5049 67.2289 52.9709 67.2289H53.2284V67.9725H48.6719V67.2289H48.8916C49.3311 67.2289 49.624 67.1911 49.786 67.1179C49.9481 67.0446 50.059 66.9136 50.1212 66.725C50.1589 66.6317 50.1744 66.3054 50.1744 65.7505V60.7072H48.6719L48.6608 60.7116L48.6586 60.7138Z" fill="#231F20"/>
<path d="M66.9778 62.8559V61.888C66.9778 61.2332 66.7936 60.767 66.434 60.4851C66.0678 60.2032 65.5551 60.0656 64.8848 60.0656C64.5541 60.0656 64.2678 60.1033 64.0148 60.181C63.7685 60.2654 63.5687 60.3697 63.4178 60.5118C63.2669 60.6538 63.1559 60.8092 63.0871 60.989C63.056 61.0512 62.9872 61.3042 62.8785 61.7437C62.7431 62.272 62.4701 62.5406 62.0573 62.5406C61.822 62.5406 61.6334 62.463 61.4869 62.3098C61.3448 62.1522 61.2716 61.9435 61.2716 61.6772C61.2716 61.2887 61.4181 60.9069 61.6999 60.5295C61.9885 60.1522 62.4323 59.8436 63.0249 59.5972C63.6175 59.3508 64.3189 59.231 65.1245 59.231C65.8791 59.231 66.5272 59.3464 67.0621 59.5772C67.597 59.8081 67.9943 60.1433 68.2451 60.5828C68.4226 60.8803 68.5114 61.4308 68.5114 62.2277V65.6372C68.5114 66.1189 68.5269 66.4341 68.558 66.5851C68.6201 66.8359 68.7356 67.0312 68.8976 67.1556C69.0596 67.2821 69.2704 67.3442 69.5301 67.3442C69.7898 67.3442 70.1271 67.2821 70.5044 67.1511V67.9214C70.0184 68.0634 69.5767 68.1367 69.1905 68.1367C68.7711 68.1367 68.416 68.0745 68.1319 67.9591C67.8433 67.8437 67.6081 67.6705 67.4305 67.4397C67.2463 67.2155 67.1265 66.9425 67.0799 66.6272C66.3674 67.1822 65.7282 67.5707 65.1578 67.7949C64.5808 68.019 64.0059 68.1345 63.4244 68.1345C62.6077 68.1345 61.9485 67.9147 61.4403 67.4685C60.932 67.029 60.6812 66.5096 60.6812 65.908C60.6812 65.5462 60.7744 65.2066 60.9631 64.8825C61.1473 64.5584 61.4292 64.2698 61.8109 64.0235C62.1927 63.7771 62.7897 63.5573 63.602 63.3686C64.4188 63.1799 65.544 63.0068 66.9889 62.8559L66.9733 62.8603L66.9778 62.8559ZM66.9778 63.6261C65.6106 63.8259 64.7628 63.9657 64.4387 64.039C63.7995 64.1855 63.3334 64.3475 63.056 64.5251C62.783 64.7027 62.5788 64.8914 62.4634 65.0956C62.348 65.2998 62.2903 65.5196 62.2903 65.7504C62.2903 65.9813 62.3524 66.2055 62.4834 66.4164C62.6143 66.6317 62.803 66.7982 63.0427 66.9247C63.2891 67.0512 63.5443 67.1134 63.8128 67.1134C64.1946 67.1134 64.6296 67.0246 65.1157 66.8403C65.5973 66.6561 66.2209 66.3009 66.9755 65.7726V63.6261H66.9778Z" fill="#231F20"/>
<path d="M77.9758 60.1367C78.2422 59.8281 78.5152 59.5973 78.7882 59.4463C79.0611 59.2998 79.3119 59.2266 79.5428 59.2266C79.7514 59.2266 79.9312 59.2887 80.0776 59.4152C80.2241 59.5418 80.2974 59.6972 80.2974 59.877C80.2974 60.0656 80.2352 60.2277 80.1043 60.3586C79.9733 60.4852 79.8069 60.5518 79.6071 60.5518C79.5228 60.5518 79.4074 60.5362 79.2676 60.5052C79.1055 60.463 78.9635 60.443 78.8481 60.443C78.7016 60.443 78.5507 60.5118 78.3864 60.6472C78.7526 61.0934 78.9369 61.6106 78.9369 62.2077C78.9369 63.0202 78.5973 63.726 77.9115 64.3232C77.2257 64.9203 76.3623 65.2177 75.3192 65.2177C74.7377 65.2177 74.1629 65.0979 73.5747 64.8559C73.1863 65.1334 72.9621 65.3021 72.9155 65.3687C72.8312 65.4686 72.789 65.5729 72.789 65.6883C72.789 65.8615 72.8778 66.0035 73.0553 66.1123C73.2795 66.2588 73.7212 66.3853 74.3804 66.4852L76.9416 66.867C77.5075 66.9558 78.0779 67.1023 78.6483 67.3065C79.2254 67.5152 79.6382 67.7838 79.8934 68.1123C80.1509 68.4431 80.2752 68.836 80.2752 69.3021C80.2752 70.0768 79.9134 70.7006 79.1965 71.1667C78.2799 71.7639 76.9238 72.0613 75.1283 72.0613C74.185 72.0613 73.4216 71.957 72.829 71.7572C72.243 71.5574 71.7814 71.2755 71.4574 70.9092C71.2221 70.6429 71.1067 70.3698 71.1067 70.0879C71.1067 69.7217 71.2265 69.3643 71.4685 69.0202C71.7104 68.6739 72.2586 68.1723 73.1286 67.533C72.5693 67.3909 72.1698 67.2244 71.9234 67.0357C71.6149 66.7893 71.4618 66.5163 71.4618 66.2144C71.4618 66.0635 71.4929 65.9214 71.5461 65.786C71.6038 65.655 71.6926 65.5196 71.8191 65.3887C71.9456 65.2577 72.1809 65.069 72.516 64.8337C72.7247 64.6872 72.8778 64.5762 72.9666 64.5096C72.5382 64.2011 72.212 63.8548 71.9922 63.4774C71.7725 63.0956 71.6682 62.6805 71.6682 62.2255C71.6682 61.4774 71.9567 60.8226 72.5382 60.261C73.2396 59.5795 74.1873 59.2354 75.3769 59.2354C75.9118 59.2354 76.3712 59.3043 76.764 59.4286C77.1613 59.5595 77.5652 59.8015 77.9847 60.1411H77.9803L77.9758 60.1367ZM75.2903 60.0479C74.7088 60.0479 74.2228 60.2565 73.8233 60.6761C73.4193 61.0956 73.2218 61.6128 73.2218 62.2366C73.2218 62.645 73.315 63.0224 73.4948 63.3531C73.679 63.6883 73.9342 63.9502 74.2649 64.1434C74.5956 64.332 74.9463 64.4319 75.3125 64.4319C75.6787 64.4319 76.0294 64.3387 76.3601 64.1434C76.6908 63.9502 76.946 63.6817 77.1302 63.3531C77.3078 63.0224 77.3966 62.6517 77.3966 62.2366C77.3966 61.5862 77.2035 61.0579 76.8106 60.6561C76.4178 60.2521 75.9162 60.0479 75.2925 60.0479H75.2903ZM73.881 67.7305C73.315 68.2122 72.9377 68.6051 72.7491 68.9092C72.5649 69.2067 72.4716 69.4952 72.4716 69.7794C72.4716 70.0147 72.5649 70.2455 72.7491 70.4653C72.9377 70.685 73.2507 70.8693 73.7012 71.0091C74.1518 71.1512 74.7111 71.2178 75.3924 71.2178C76.1936 71.2178 76.8839 71.129 77.4609 70.9559C78.038 70.7827 78.4508 70.5585 78.6972 70.2899C78.8814 70.0746 78.9746 69.8238 78.9746 69.5352C78.9746 69.2888 78.9014 69.0735 78.7504 68.907C78.5995 68.7339 78.3154 68.5874 77.9026 68.4608C77.4831 68.3343 77.1014 68.2411 76.7352 68.1789L73.8876 67.7283H73.8832L73.881 67.7305Z" fill="#231F20"/>
<path d="M85.3987 59.2265C86.2687 59.2265 87.0167 59.404 87.6492 59.7659C88.2817 60.1277 88.7811 60.6516 89.1473 61.3419C89.5135 62.0323 89.6978 62.8181 89.6978 63.7037C89.6978 64.5894 89.5091 65.3797 89.1385 66.0656C88.7611 66.7559 88.2529 67.2798 87.6093 67.6461C86.9656 68.0079 86.191 68.1899 85.2944 68.1899C83.8651 68.1899 82.7975 67.7437 82.0784 66.8536C81.3615 65.9635 81.0042 64.9157 81.0042 63.7104C81.0042 62.8314 81.1929 62.05 81.5635 61.3685C81.9342 60.6871 82.4535 60.1588 83.1238 59.7881C83.794 59.4107 84.5531 59.2287 85.4009 59.2287L85.3965 59.2242L85.3987 59.2265ZM85.3299 60.0855C84.6552 60.0855 84.0892 60.3519 83.6231 60.8824C83.0372 61.5417 82.7376 62.5051 82.7376 63.7681C82.7376 65.0312 82.9884 65.9102 83.4922 66.5495C83.9472 67.1155 84.5664 67.4041 85.3454 67.4041C85.847 67.4041 86.2931 67.2731 86.686 67.0068C87.0788 66.7404 87.3918 66.3164 87.6381 65.7348C87.88 65.1533 87.9999 64.4718 87.9999 63.6882C87.9999 62.9046 87.8689 62.2365 87.6115 61.6305C87.4073 61.1443 87.1099 60.7714 86.6993 60.4984C86.2954 60.232 85.8404 60.0944 85.3321 60.0944L85.3277 60.09L85.3299 60.0855Z" fill="#231F20"/>
<path d="M37.0013 68.0767C37.3254 68.0767 37.5984 68.1921 37.8225 68.4163C38.0467 68.6405 38.1577 68.918 38.1577 69.2443C38.1577 69.5706 38.0423 69.837 37.8114 70.0567C37.5806 70.2809 37.3098 70.3964 36.9947 70.3964C36.6795 70.3964 36.3977 70.2809 36.1735 70.0501C35.9493 69.8192 35.8339 69.5484 35.8339 69.2288C35.8339 68.9091 35.9449 68.6427 36.169 68.4163C36.3932 68.1921 36.6706 68.0767 36.9969 68.07L37.0013 68.0745V68.0767ZM37.0013 62.1321C37.3254 62.1321 37.5984 62.2476 37.8225 62.4718C38.0467 62.696 38.1577 62.9734 38.1577 63.2997C38.1577 63.6261 38.0423 63.8924 37.8114 64.1122C37.5806 64.3364 37.3098 64.4518 36.9947 64.4518C36.6795 64.4518 36.3977 64.3364 36.1735 64.1055C35.9493 63.8747 35.8339 63.6039 35.8339 63.2842C35.8339 62.9646 35.9449 62.6982 36.169 62.4718C36.3932 62.2476 36.6706 62.1321 36.9969 62.1255L37.0013 62.1299V62.1321Z" fill="#D42E28"/>
<path d="M29.3737 71.6949V70.9135C30.6609 70.5162 31.6575 69.8924 32.3677 69.0489C33.069 68.2054 33.4264 67.3108 33.4264 66.3674C33.4264 66.1432 33.3687 65.959 33.2599 65.8014C33.1711 65.6971 33.0824 65.6438 32.998 65.6438C32.856 65.6438 32.5586 65.7636 32.0969 65.9989C31.8728 66.1033 31.6353 66.1565 31.3845 66.1565C30.7719 66.1565 30.2859 65.9901 29.9174 65.6438C29.5623 65.2975 29.3737 64.8269 29.3737 64.2298C29.3737 63.6327 29.6089 63.1554 30.075 62.7425C30.5411 62.323 31.1159 62.1188 31.7929 62.1188C32.6207 62.1188 33.3531 62.4584 33.9968 63.1399C34.6404 63.8147 34.9644 64.7159 34.9644 65.8325C34.9644 67.0467 34.5139 68.1788 33.6239 69.2198C32.7295 70.2676 31.3157 71.0844 29.3715 71.6927L29.3737 71.6949Z" fill="#D42E28"/>
</svg>
